<svg xmlns="http://www.w3.org/2000/svg" xmlns:xlink="http://www.w3.org/1999/xlink" version="1.1" id="Layer_2" x="0px" y="0px" viewBox="0 0 1080 1080" style="enable-background:new 0 0 1080 1080;" xml:space="preserve" width="1080" height="1080">
<style type="text/css">
	.st0{fill:#F2F2F2;}
	.st1{fill:#FFFFFF;}
	.st2{fill:none;stroke:#FFFFFF;stroke-miterlimit:10;}
	.st3{fill:#FCD2B1;}
	.st4{fill:#148AE2;}
	.st5{fill:#FFE3CA;}
	.st6{fill:#0E538C;}
	.st7{fill:#0A3D59;}
	.st8{fill:#0B4870;}
	.st9{fill:#2A94F4;}
	.st10{fill:#FFBE55;}
	.st11{fill:#CCE9FF;}
	.st12{fill:#B6E7FF;}
	.st13{fill:#85DDFF;}
	.st14{fill:#41AAF7;}
</style>
<g>
	<g>
		<rect x="68.9" y="242.7" class="st0" width="942.3" height="380.7"/>
		<polygon class="st1" points="438,620 165.2,620 556,242.7 828.8,242.7   "/>
		<polygon class="st2" points="602.6,620 522.9,620 913.8,242.7 993.4,242.7   "/>
	</g>
	<path class="st0" d="M1016.5,931.1h-953c-7.1,0-12.8-5.8-12.8-12.8V842c0-7.1,5.8-12.8,12.8-12.8h953c7.1,0,12.8,5.8,12.8,12.8   v76.3C1029.3,925.3,1023.6,931.1,1016.5,931.1z"/>
	<g>
		<path class="st3" d="M911.3,469.2c-0.5,0.2-0.8,0.5-1.2,0.9c0,0,0,0,0,0c-1.6,1.4-3.1,3.7-9,9.9c-2.2,1.2-6.1,1.9-10.2,2.4    c-7.6,0.8-15.9,0.7-15.9,0.7l-3.7-5.7l10.2-5.5c0,0,7.8-6.8,11.6-8.1c-0.1,2.6-3.5,6.9-3.5,6.9S906.4,467.3,911.3,469.2z"/>
		<path class="st4" d="M713.4,430.6c30-8.1,79.2,93,160.4,41.3c3.6,7.8,6,12.6,6,12.6s-62.6,55.9-157.7,5.1    C716.7,451.4,713.4,430.6,713.4,430.6z"/>
		<path class="st5" d="M576.3,555.1c0,0-7.9,11.6-6.7,19.6c1.2,8,6.9,1.1,6.9,1.1l3.1-6.3c0,0,0.9,2.1,1.8,4.8    c0.8-2.2,3.8-19.7,3.8-19.7L576.3,555.1z"/>
		<path class="st6" d="M618.8,739c-11.2,19-30.8,45.4-32.9,63.9c-0.6,5.6-4.9,10.1-10.4,10.9l0,0c0,0-7.9-17.5-18.3-41.2    c1-10.8,13.6-26.8,21.3-38.8c-13.2,4.5-32.1,14.1-32.1,14.1l-5.6-12.8l64.2-27.7L618.8,739z"/>
		<path class="st6" d="M743.5,817.7c12.9,17.9,29.3,46.4,45.4,55.7c4.9,2.8,7.3,8.5,5.8,13.9l0,0c0,0-19.3,0.2-45.1,0.2    c-9.5-5.2-19.1-23.2-27-35.1c-1.2,13.9,0,35.1,0,35.1h-13.9l0.3-69.9H743.5z"/>
		<path class="st7" d="M737.6,527.1c25.3,64.7,55.4,155.9,53.6,166.5c-1.8,10.6-38.5,130.1-26.8,139.8c-45.6,0-68.5-1.8-74-13.3    c16.7-20.4,71.7-126.8,71.7-126.8c-7.1-8-57.7-100.7-59-117.5s5.7-55.3,5.7-55.3L737.6,527.1z"/>
		<path class="st8" d="M687.5,530.9c-7.6,12.9-30.9,40.2-19.5,71.6c11.3,31.4,22.5,85.2,22.5,85.2s-57.7,30.7-106,4.2    c-18.2,32.7,22.7,76.7,22.7,76.7l105.6-57.4c8-4.3,12.8-12.8,12.4-21.9L719,550.7l12.1-30.1L687.5,530.9z"/>
		<path class="st9" d="M694.4,429.1c-42.1,5-99.4,45.8-122.7,128.7l16,3.9c0,0,34.5-86.4,81.4-96.9c16.6,58.9,18.3,66.1,18.3,66.1    l50.1-3.9l5-41.9c0.1-0.6,0.2-1.2,0.3-1.8c2.3-13.9-2.7-28.1-12.9-38l-8.8-8.5l-12.3-9.4L694.4,429.1z"/>
		<polygon class="st3" points="710.7,416 715.9,434 710.7,444 690.5,432.8 693,407.7   "/>
		<path class="st8" d="M702.3,386.8c0,9.5,1.8,23.8-7.4,23.8s-25.7-14.2-25.7-23.8c0-9.5,7.4-17.2,16.5-17.2    S702.3,377.3,702.3,386.8z"/>
		<path class="st5" d="M730,393.6c0,13.3-0.4,27-12,27s-30-3-30-27c0-13.3,9.4-24,21-24S730,380.3,730,393.6z"/>
		<g>
			<path class="st8" d="M695.3,388.1c6.1-3.6,13.1-5.5,20.2-6c2.7-0.2,5.3-1.4,8.7-3.3c6.1-3.5,10.5-9.8,11.5-16.8     c0.5-3.6,0.1-7.5-2.1-10.4c-2.9-3.8-8.4-4.9-13-3.8c-4.7,1.1-8.7,3.8-12.6,6.7s-7.7,5.8-12.2,7.4c-3.8,1.3-8,1.5-11.9,2.6     c-7.9,2.2-15,9-14.6,17.6c0.2,5.6,3.9,10.7,9.4,11.9c5.5,1.2,10.2-2.1,14.8-4.8L695.3,388.1z"/>
		</g>
		<path class="st8" d="M699,384.6c-3,10-8,18-13,18s-4-14-4-14L699,384.6z"/>
		
			<ellipse transform="matrix(0.8359 -0.5489 0.5489 0.8359 -107.5261 444.3083)" class="st5" cx="689.2" cy="402" rx="5.1" ry="6.9"/>
		<g>
			<path class="st8" d="M687.3,371.5c-3.5-6-7-12-12-16.8c-5-4.8-11.7-8.3-18.6-7.9c-10.6,0.6-18.5,9.7-25.3,17.9     c-6.8,8.2-15.2,17-25.9,16.7c-9.4-0.3-16.8-7.6-25.1-12.2c-12-6.5-27.9-6.8-38.8,1.4c-10.9,8.2-14.7,25.5-6.4,36.3     c4.6,6,11.9,9.4,19.4,10.5s15.1,0.2,22.5-1.2c15.1-2.8,30.2-7.5,42.9-16.2c3.3-2.2,6.7-4.9,10.7-5c3.5-0.1,6.8,1.7,10.1,3     c10.4,4.1,22.8,2.7,32-3.7c9.2-6.4,14.9-17.5,14.6-28.7"/>
		</g>
		<circle class="st10" cx="691.2" cy="407.3" r="3.2"/>
		<path class="st8" d="M718.8,547.1"/>
		<g>
			<path class="st11" d="M914.8,491c-2,1.4-6.7,3.2-12.3,4.5s-10.6,1.8-13,1.4l-1.6-1l0,0c0-0.1,0.1-0.3,0.2-0.4     c1-1.5,6.4-3.7,13.2-5.3c6.8-1.6,12.6-2,14.2-1.1c0.1,0.1,0.2,0.2,0.3,0.3c0,0,0,0,0,0L914.8,491z"/>
			
				<rect x="895.7" y="444.3" transform="matrix(0.974 -0.2267 0.2267 0.974 -82.9376 215.4276)" class="st6" width="1.3" height="48.8"/>
			<polygon class="st9" points="871.4,442.2 873.5,443.8 894.2,459.9 905.7,436.3 906.9,433.9 906.9,433.9 906.5,433.4 871.6,441.6         "/>
			<path class="st11" d="M905.7,436.3c-2.5,2-8.5,4.4-15.6,6.1c-7.1,1.7-13.5,2.1-16.7,1.4l-2.1-1.6l0,0c0-0.2,0.1-0.4,0.2-0.6     c1.2-2.2,8.1-5.3,16.7-7.3c8.6-2,16.1-2.3,18.2-0.8c0.2,0.1,0.3,0.3,0.4,0.4c0,0,0,0,0,0L905.7,436.3z"/>
		</g>
		<path class="st3" d="M910.1,470C910.1,470,910.1,470,910.1,470c-1.6,1.4-3.1,3.7-9,9.9c-2.2,1.2-6.1,1.9-10.2,2.4l-1.8-10    L910.1,470z"/>
	</g>
	<polygon class="st10" points="687.8,328.7 692.5,373.6 716.7,363.3  "/>
	<g>
		<path class="st8" d="M397.4,866.4c3.8,3.8,42.3,32.8,42.3,32.8l-58.7-7.8v-20.8L397.4,866.4z"/>
		<polygon class="st8" points="279.6,810.7 240.5,849.5 295.5,830.1 295.5,813.4   "/>
		<path class="st9" d="M346.6,595.3c0,0-59.9,24.1-94.7,39.2c-14.3,6.2-22.3,21.6-19.1,36.9C244,724.5,273,819.2,273,819.2l29.7-4.1    l-12.4-115c-1.5-14.3,6.4-28,19.7-33.7l59.2-25.3l34.7,75.5c5.3,11.6,6.4,24.7,3.1,37l-32.7,121.8h37.8l45.5-141    c2.6-8.2,3.3-16.8,2-25.3l-17.9-113.8H346.6z"/>
		<path class="st3" d="M234.5,395.8c-1.4-1.5-12.9-20.6-9.6-27.8c3.3-7.2,16.3-10.4,16.3-10.4l5.7,33.4L234.5,395.8z"/>
		<path class="st3" d="M508.9,614.2c-1.5,4-9.7,25.3-16.7,27c-5.4-7.5,0-21.1,0-21.1l-7.5,7.7c0,0,11.3-22.1,16.2-22.1    S508.9,614.2,508.9,614.2z"/>
		<path class="st8" d="M513.2,619.7c0,0-3.4,2.9-16.8-11.2c13.4-59.8-15.8-110-34.6-126.8c-2.2,2.1-21,86.3-14.4,130.3    c-31.2,16.5-88.3,2.4-116.6-10.2c4.4-37,23.9-83.6,34.9-118.6c8.9-28.2,16.3-48.2,16.3-48.2c0,0,0.1,0,0.1,0    c0.8-0.1,7-1.2,16.1-2.3c6.8-0.8,15.1-1.7,24.2-2.3c0,0,12.9,5.3,25,0C562.4,500,513.2,619.7,513.2,619.7z"/>
		<polygon class="st3" points="452,410.8 450.7,440.2 422.3,452.9 414.9,438.5 427.1,416.7   "/>
		<g>
			<path class="st8" d="M419.7,350.7c16.8,5,36.7,5,42.3,15.3s5,31.4,3.4,36.1c-1.6,4.7-23.9,18.4-23.9,18.4L419.7,350.7z"/>
			<path class="st5" d="M403.1,360.9c-2.3,9.8-9.8,51.5,0,60.6c9.8,9.1,39.4,3,44.7,0c5.3-3,8.3-40.9,8.3-40.9L403.1,360.9z"/>
			<g>
				<path class="st8" d="M425.8,383c-10.6-4.4-22.8-9.5-30-18.4c-2.9-3.6-5.2-8-5.3-12.6c-0.3-8.5,6.6-15.8,14.5-18.8      s16.6-2.7,25.1-2.3c-5.2,0.7-9,5.9-9.2,11.1c-0.2,5.2,2.8,10.2,6.7,13.6s8.8,5.6,13.7,7.5c3.5,1.4,7.1,2.7,9.8,5.3      c2.7,2.6,4.2,6.9,2.4,10.2c-1.4,2.7-4.6,4-7.6,4.1c-3,0.1-9.8,3.8-21.3-0.1"/>
			</g>
			<path class="st8" d="M437.4,371c2.6,10.1,5.7,22.5,11.4,20.4c2.1,4.2,2.1,15,2.1,15s6.8,0.2,6.3-1.7c-0.5-1.9,0-25.3,0-25.3     L453,371H437.4z"/>
			<ellipse transform="matrix(0.4227 -0.9063 0.9063 0.4227 -95.475 644.304)" class="st5" cx="458" cy="397.1" rx="5.9" ry="4.8"/>
			<path class="st8" d="M454,403.8L454,403.8c-1.8,0-3.3-1.5-3.3-3.3v-9.3c0-1.8,1.5-3.3,3.3-3.3l0,0c1.8,0,3.3,1.5,3.3,3.3v9.3     C457.3,402.3,455.8,403.8,454,403.8z"/>
		</g>
		<path class="st8" d="M398.1,432.7c-0.2,6.1-2.3,36.6-28.8,50.7c-1.2,0-2.5-0.1-3.7-0.2C240.4,477,228.6,391,228.6,391    s9.4-2.1,21.6-4.4c30.6,78.4,93.7,58.1,131.7,48.4c0,0,0.1,0,0.1,0C382.8,434.9,389,433.8,398.1,432.7z"/>
		<polygon class="st10" points="456.2,323.2 423.7,359.5 449.4,371.5   "/>
	</g>
	<g>
		<path class="st12" d="M957.2,882.7c19.4,0,27.6-15.5,30.9-32c3.6-18.6,1-38.3,1-38.3h-63.7c0,0-0.1,0.8-0.2,2.1    C923.9,826.2,920.1,882.7,957.2,882.7z"/>
		<path class="st13" d="M925.3,812.4c0,1.4,14.3,2.5,31.8,2.5c17.6,0,31.8-1.1,31.8-2.5c0-1.4-14.3-2.5-31.8-2.5    C939.6,809.9,925.3,811,925.3,812.4z"/>
		<path class="st9" d="M871,635.9c0,0,33.6,51.1,53.7,82.3s25.4,37.6,27.8,47.7c2.4,10.1,4.6,47.2,4.6,47.2h1.5    c0,0-0.5-31.5-2.3-42.2c-1.8-10.3,0.1-13.9,1.6-24.7c1.4-10.8,3.4-28.1-7.6-40c-10.9-12-8-23.7-11.9-31.7    c-3.8-7.9-33.6-17.5-37.4-25.7C897.1,640.7,880.3,635.7,871,635.9z"/>
		<path class="st14" d="M871,635.9c0,0,10.6,12,17.7,16.1c7.2,4.1,10.6,0.5,16.1,10.3c5.5,9.8,5.7,14.1,10.8,19.2    c5,5,11,5.3,11.5,16.3c0.5,11-2.4,20.4-2.4,20.4S873.1,638.5,871,635.9z"/>
		<path class="st9" d="M954.4,813.1h-1.5c0,0-0.5-10.2-4.5-15.2c-2.6-3.2-13.7-6.8-24.7-11.2c-6-2.4-12.1-5-16.6-7.9    c-12.8-8.1-24.9-34.3-26-38.9c-0.4-1.6-0.5-2.6-0.5-3.3v0c0-1.3,0.6-1.4,1.7-2.7c0.5-0.6,2.1-0.4,4,0.2c5.5,1.7,10.2,5.4,13,10.4    c2.7,4.6,6.9,10.4,12.1,11.8c9,2.4,8.3,3.9,11.6,13.1c3.3,9.2,11.7,10.7,22.2,21.5C955.8,801.7,954.4,813.1,954.4,813.1z"/>
		<path class="st14" d="M923.7,786.8c-6-2.4-12.1-5-16.6-7.9c-12.8-8.1-24.9-34.3-26-38.9c-0.4-1.6-0.5-2.6-0.5-3.3    c0,0.3,0.6,4.4,7.3,7.2c6.9,2.8,8.3,2.8,9.2,7.2c0.9,4.4,1.7,9,5.3,9.9c3.6,0.9,5.9-3.2,8.7,3.5c2.9,6.6,4.2,8.9,6.8,9.8    c2.6,0.9,4.6-0.5,5.2,4.7C923.4,782,923.6,784.9,923.7,786.8z"/>
		<path class="st9" d="M965.4,813.1h1.8c0,0,3.5-63.2,8.3-69.1c3.1-3.8,13.3-10.6,26.3-15.7c7.2-2.8,14.3-5.9,19.7-9.4    c15.1-9.6,29.5-40.6,30.8-46.1c0.4-1.9,0.6-3.1,0.6-3.9v0c0-1.5-0.8-1.7-2-3.2c-0.6-0.7-2.5-0.5-4.7,0.2c-6.5,2-12,6.5-15.4,12.4    c-3.2,5.5-8.2,12.3-14.4,13.9c-10.7,2.9-9.8,4.6-13.7,15.5c-3.9,10.9-13.9,12.6-26.3,25.4C963.8,746,965.4,813.1,965.4,813.1z"/>
		<path class="st14" d="M1001.8,728.3c7.2-2.8,14.3-5.9,19.7-9.4c15.1-9.6,29.5-40.6,30.8-46.1c0.4-1.9,0.6-3.1,0.6-3.9    c0,0.4-0.7,5.3-8.6,8.5c-8.2,3.4-9.8,3.4-10.8,8.5c-1.1,5.2-2,10.7-6.2,11.7c-4.3,1.1-6.9-3.7-10.3,4.1c-3.4,7.8-5,10.5-8.1,11.6    c-3.1,1.1-5.5-0.5-6.2,5.5C1002.2,722.6,1001.9,726.1,1001.8,728.3z"/>
		<g>
			<path class="st11" d="M957.2,882.7c19.4,0,27.6-15.5,30.9-32c-19-7.2-43-18.8-62.9-36.2C923.9,826.2,920.1,882.7,957.2,882.7z"/>
		</g>
	</g>
	<g>
		<path class="st12" d="M105.2,885.4c13.8,0,19.6-11,21.9-22.7c2.6-13.2,0.7-27.2,0.7-27.2H82.6c0,0-0.1,0.5-0.2,1.5    C81.6,845.2,78.9,885.4,105.2,885.4z"/>
		<path class="st13" d="M82.6,835.4c0,1,10.1,1.8,22.6,1.8c12.5,0,22.6-0.8,22.6-1.8c0-1-10.1-1.8-22.6-1.8    C92.7,833.6,82.6,834.4,82.6,835.4z"/>
		<path class="st9" d="M31,685.2c0,0,28.6,43.5,45.7,70s21.6,32,23.7,40.6c2,8.6,3.9,40.2,3.9,40.2h2.2c0,0,1.4-26.7-1.2-35.5    c-2.7-8.8-1.6-12.2-0.4-21.4c1.2-9.2,2.9-23.9-6.4-34.1c-9.3-10.2-6.8-20.2-10.1-26.9c-3.3-6.7-28.6-14.9-31.8-21.8    C53.3,689.2,39,685,31,685.2z"/>
		<path class="st14" d="M37.3,685.2c0,0,9,10.2,15.1,13.7c6.1,3.5,9,0.4,13.7,8.8c4.7,8.4,4.9,12,9.2,16.3c4.3,4.3,9.4,4.5,9.8,13.9    c0.4,9.4-2,17.3-2,17.3S39.1,687.4,37.3,685.2z"/>
		<path class="st9" d="M113.8,835.4l1.6-0.5c0,0-2.8-11.2,0-18c1.8-4.3,12.7-11.9,23.2-20.2c5.8-4.6,11.5-9.4,15.5-14    c11.2-13,15.9-45.3,15.6-50.7c-0.1-1.9-0.3-3-0.5-3.7l0,0c-0.4-1.4-1.2-1.4-2.8-2.4c-0.8-0.5-2.4,0.2-4.3,1.5    c-5.4,3.6-9.3,9.2-10.8,15.6c-1.4,5.9-4.1,13.5-9.4,16.7c-9,5.6-7.7,6.9-8.3,18c-0.6,11-9.2,15.4-17.1,30.6    C108.6,823.4,113.8,835.4,113.8,835.4z"/>
		<path class="st14" d="M138.6,796.8c5.8-4.6,11.5-9.4,15.5-14c11.2-13,15.9-45.3,15.6-50.7c-0.1-1.9-0.3-3-0.5-3.7    c0.1,0.3,0.8,5-5.6,10.2c-6.6,5.3-8,5.8-7.6,10.8c0.4,5,1.1,10.3-2.5,12.5c-3.6,2.2-7.4-1.5-8.3,6.6c-1,8.1-1.7,11-4.3,12.8    c-2.6,1.8-5.2,1-4.1,6.8C137.4,791.5,138.1,794.7,138.6,796.8z"/>
		<g>
			<path class="st11" d="M105.2,885.4c13.8,0,19.6-11,21.9-22.7c-13.5-5.1-30.6-13.4-44.7-25.8C81.6,845.2,78.9,885.4,105.2,885.4z"/>
		</g>
	</g>
	<polygon class="st10" points="119.8,319.1 118,350.2 145.8,336.2  "/>
	<polygon class="st10" points="992.1,480.2 969.4,480.2 980.8,499.8  "/>
	<polygon class="st10" points="203.7,655.5 169.6,655.5 186.7,684.9  "/>
	
		<rect x="330.7" y="218.6" transform="matrix(0.6686 -0.7436 0.7436 0.6686 -66.1957 331.1701)" class="st9" width="15.5" height="42.6"/>
	
		<rect x="879.5" y="567.1" transform="matrix(0.7822 0.623 -0.623 0.7822 556.3596 -425.8158)" class="st9" width="15.5" height="31.5"/>
	
		<rect x="726.5" y="214.6" transform="matrix(0.8879 -0.46 0.46 0.8879 -22.431 363.2215)" class="st9" width="15.5" height="26.1"/>
</g>
</svg>