<svg width="332" height="92" viewBox="0 0 332 92" fill="none" xmlns="http://www.w3.org/2000/svg">
<path d="M325.32 91.1494H6.67999C5.11559 91.1476 3.61579 90.5253 2.50958 89.4191C1.40338 88.3129 0.781134 86.8131 0.779297 85.2487V6.20773C0.781136 4.64333 1.40338 3.14352 2.50958 2.03732C3.61579 0.931121 5.11559 0.308844 6.67999 0.307007H325.32C326.884 0.308844 328.384 0.931121 329.49 2.03732C330.596 3.14352 331.219 4.64333 331.221 6.20773V85.2487C331.219 86.8131 330.596 88.3129 329.49 89.4191C328.384 90.5253 326.884 91.1476 325.32 91.1494ZM6.67999 2.66733C5.74133 2.66835 4.84141 3.04171 4.17767 3.70544C3.51394 4.36918 3.14061 5.2691 3.13959 6.20776V85.2487C3.14061 86.1874 3.51394 87.0873 4.17767 87.7511C4.84141 88.4148 5.74133 88.7881 6.67999 88.7892H325.32C326.259 88.7881 327.158 88.4148 327.822 87.7511C328.486 87.0873 328.859 86.1874 328.86 85.2487V6.20773C328.859 5.26907 328.486 4.36912 327.822 3.70538C327.158 3.04165 326.259 2.66832 325.32 2.6673L6.67999 2.66733Z" fill="#BFCAFF"/>
</svg>
