<svg width="36" height="36" viewBox="0 0 36 36" fill="none" xmlns="http://www.w3.org/2000/svg">
<circle cx="18" cy="18" r="18" fill="#DFE5FF"/>
<path d="M17.2433 13.792L14.5369 10.668C14.2249 10.308 13.6529 10.3096 13.2905 10.6728L11.0649 12.9024C10.4025 13.5656 10.2129 14.5504 10.5961 15.34C12.8854 20.0799 16.7081 23.908 21.4449 26.204C22.2337 26.5872 23.2177 26.3976 23.8801 25.7344L26.1265 23.484C26.4905 23.12 26.4913 22.5448 26.1281 22.2328L22.9921 19.5408C22.6641 19.2592 22.1545 19.296 21.8257 19.6256L20.7345 20.7184C20.6786 20.7769 20.6051 20.8155 20.5252 20.8282C20.4453 20.841 20.3634 20.8271 20.2921 20.7888C18.5084 19.7617 17.0289 18.2802 16.0041 16.4952C15.9657 16.4238 15.9518 16.3418 15.9645 16.2617C15.9772 16.1816 16.0159 16.108 16.0745 16.052L17.1625 14.9632C17.4921 14.632 17.5281 14.12 17.2433 13.7912V13.792Z" stroke="#313A63" stroke-width="2" stroke-linecap="round" stroke-linejoin="round"/>
</svg>
