<svg width="126" height="80" viewBox="0 0 126 80" fill="none" xmlns="http://www.w3.org/2000/svg">
<g filter="url(#filter0_d)">
<path d="M53.2169 44.6961C52.5782 43.9886 52.0364 43.1992 51.6059 42.3487C50.9257 41.0157 49.9856 39.8322 48.8411 38.8681C47.6965 37.9041 46.3705 37.1788 44.9412 36.7351C43.6915 36.3487 42.3836 36.1847 41.0771 36.2505C42.0281 36.1962 42.9644 36.5032 43.6984 37.1101C44.4326 37.717 44.9102 38.5788 45.0356 39.523C45.3794 41.5631 46.2836 43.4675 47.6472 45.0233C49.0108 46.5792 50.7802 47.7253 52.7575 48.3336C55.0187 49.0285 57.4416 48.9911 59.6802 48.2267C57.1866 47.82 54.9066 46.5745 53.2169 44.6961Z" fill="url(#paint0_linear)"/>
</g>
<g filter="url(#filter1_d)">
<path d="M37.0796 36.3752C37.3702 37.6517 37.8813 38.8677 38.59 39.9686C38.0725 39.1693 37.8733 38.205 38.0318 37.266C38.1902 36.327 38.6948 35.4815 39.4459 34.8962C41.0412 33.5766 42.2389 31.8401 42.9056 29.8801C43.5722 27.92 43.6817 25.8134 43.2219 23.7948C42.6969 21.4856 41.4518 19.403 39.6661 17.8477C40.5551 20.2241 40.6062 22.8328 39.8109 25.2423C39.5064 26.1519 39.0832 27.0174 38.5522 27.8163C37.737 29.0712 37.1816 30.4769 36.9189 31.9503C36.6562 33.4236 36.6916 34.9346 37.023 36.394L37.0796 36.3752Z" fill="url(#paint1_linear)" shape-rendering="crispEdges"/>
</g>
<g filter="url(#filter2_d)">
<path d="M43.0902 40.2266C42.6621 41.0778 41.928 41.7358 41.0351 42.0684C40.1422 42.401 39.1566 42.3838 38.2758 42.0202C36.3349 41.2928 34.2299 41.1195 32.1962 41.5195C30.1624 41.9196 28.2799 42.8774 26.7591 44.2857C25.0251 45.8989 23.8483 48.021 23.3984 50.3462C25.012 48.3876 27.2453 47.0378 29.7295 46.5199C30.6628 46.3289 31.6162 46.2549 32.5678 46.2996C34.0604 46.377 35.5533 46.1545 36.9584 45.6454C38.3635 45.1363 39.6525 44.3509 40.7491 43.3355C41.7088 42.4442 42.5054 41.3921 43.1028 40.2266H43.0902Z" fill="url(#paint2_linear)"/>
</g>
<path d="M68.103 46C67.543 46 67.119 45.848 66.831 45.544C66.559 45.24 66.447 44.808 66.495 44.248L67.551 30.784C67.599 30.224 67.799 29.784 68.151 29.464C68.519 29.128 68.991 28.96 69.567 28.96C70.143 28.96 70.583 29.128 70.887 29.464C71.207 29.8 71.343 30.248 71.295 30.808L70.335 42.952H76.455C76.999 42.952 77.407 43.072 77.679 43.312C77.967 43.552 78.111 43.896 78.111 44.344C78.111 44.92 77.951 45.344 77.631 45.616C77.327 45.872 76.863 46 76.239 46H68.103ZM87.3799 46.216C85.0279 46.216 83.2519 45.68 82.0519 44.608C80.8679 43.52 80.2759 41.912 80.2759 39.784C80.2759 39.576 80.2919 39.248 80.3239 38.8L80.9479 30.784C80.9959 30.224 81.1959 29.784 81.5479 29.464C81.9159 29.128 82.3799 28.96 82.9399 28.96C83.4999 28.96 83.9319 29.128 84.2359 29.464C84.5399 29.8 84.6679 30.248 84.6199 30.808L83.9959 38.896C83.9799 39.072 83.9719 39.32 83.9719 39.64C83.9719 40.872 84.2679 41.792 84.8599 42.4C85.4519 43.008 86.3559 43.312 87.5719 43.312C88.6439 43.312 89.4839 43.008 90.0919 42.4C90.7159 41.776 91.0759 40.768 91.1719 39.376L91.8439 30.784C91.8919 30.224 92.0919 29.784 92.4439 29.464C92.8119 29.128 93.2679 28.96 93.8119 28.96C94.3719 28.96 94.8039 29.128 95.1079 29.464C95.4279 29.8 95.5639 30.248 95.5159 30.808L94.8679 39.112C94.6759 41.464 93.9479 43.24 92.6839 44.44C91.4359 45.624 89.6679 46.216 87.3799 46.216ZM100.082 46C99.5221 46 99.0981 45.848 98.8101 45.544C98.5381 45.24 98.4261 44.808 98.4741 44.248L99.5301 30.784C99.5781 30.224 99.7781 29.784 100.13 29.464C100.498 29.128 100.97 28.96 101.546 28.96C102.122 28.96 102.562 29.128 102.866 29.464C103.186 29.8 103.322 30.248 103.274 30.808L102.314 42.952H108.434C108.978 42.952 109.386 43.072 109.658 43.312C109.946 43.552 110.09 43.896 110.09 44.344C110.09 44.92 109.93 45.344 109.61 45.616C109.306 45.872 108.842 46 108.218 46H100.082ZM114.326 46C113.766 46 113.342 45.848 113.054 45.544C112.782 45.24 112.67 44.808 112.718 44.248L113.774 30.784C113.822 30.224 114.022 29.784 114.374 29.464C114.742 29.128 115.214 28.96 115.79 28.96C116.366 28.96 116.806 29.128 117.11 29.464C117.43 29.8 117.566 30.248 117.518 30.808L116.558 42.952H122.678C123.222 42.952 123.63 43.072 123.902 43.312C124.19 43.552 124.334 43.896 124.334 44.344C124.334 44.92 124.174 45.344 123.854 45.616C123.55 45.872 123.086 46 122.462 46H114.326Z" fill="#49438D"/>
<defs>
<filter id="filter0_d" x="37.0771" y="36.2363" width="26.603" height="20.5924" filterUnits="userSpaceOnUse" color-interpolation-filters="sRGB">
<feFlood flood-opacity="0" result="BackgroundImageFix"/>
<feColorMatrix in="SourceAlpha" type="matrix" values="0 0 0 0 0 0 0 0 0 0 0 0 0 0 0 0 0 0 127 0" result="hardAlpha"/>
<feOffset dy="4"/>
<feGaussianBlur stdDeviation="2"/>
<feComposite in2="hardAlpha" operator="out"/>
<feColorMatrix type="matrix" values="0 0 0 0 0.286275 0 0 0 0 0.262745 0 0 0 0 0.552941 0 0 0 0.4 0"/>
<feBlend mode="normal" in2="BackgroundImageFix" result="effect1_dropShadow"/>
<feBlend mode="normal" in="SourceGraphic" in2="effect1_dropShadow" result="shape"/>
</filter>
<filter id="filter1_d" x="32.7451" y="17.8477" width="14.7561" height="30.121" filterUnits="userSpaceOnUse" color-interpolation-filters="sRGB">
<feFlood flood-opacity="0" result="BackgroundImageFix"/>
<feColorMatrix in="SourceAlpha" type="matrix" values="0 0 0 0 0 0 0 0 0 0 0 0 0 0 0 0 0 0 127 0" result="hardAlpha"/>
<feOffset dy="4"/>
<feGaussianBlur stdDeviation="2"/>
<feComposite in2="hardAlpha" operator="out"/>
<feColorMatrix type="matrix" values="0 0 0 0 0.286275 0 0 0 0 0.262745 0 0 0 0 0.552941 0 0 0 0.4 0"/>
<feBlend mode="normal" in2="BackgroundImageFix" result="effect1_dropShadow"/>
<feBlend mode="normal" in="SourceGraphic" in2="effect1_dropShadow" result="shape"/>
</filter>
<filter id="filter2_d" x="19.3984" y="40.2266" width="27.7043" height="18.1196" filterUnits="userSpaceOnUse" color-interpolation-filters="sRGB">
<feFlood flood-opacity="0" result="BackgroundImageFix"/>
<feColorMatrix in="SourceAlpha" type="matrix" values="0 0 0 0 0 0 0 0 0 0 0 0 0 0 0 0 0 0 127 0" result="hardAlpha"/>
<feOffset dy="4"/>
<feGaussianBlur stdDeviation="2"/>
<feComposite in2="hardAlpha" operator="out"/>
<feColorMatrix type="matrix" values="0 0 0 0 0.286275 0 0 0 0 0.262745 0 0 0 0 0.552941 0 0 0 0.4 0"/>
<feBlend mode="normal" in2="BackgroundImageFix" result="effect1_dropShadow"/>
<feBlend mode="normal" in="SourceGraphic" in2="effect1_dropShadow" result="shape"/>
</filter>
<linearGradient id="paint0_linear" x1="50.3787" y1="36.2363" x2="50.3787" y2="48.8287" gradientUnits="userSpaceOnUse">
<stop offset="0.364583" stop-color="#49438D"/>
<stop offset="0.526042" stop-color="#DFE5FF"/>
<stop offset="0.677083" stop-color="#49438D"/>
</linearGradient>
<linearGradient id="paint1_linear" x1="40.1232" y1="17.8477" x2="40.1232" y2="39.9686" gradientUnits="userSpaceOnUse">
<stop offset="0.375" stop-color="#49438D"/>
<stop offset="0.546875" stop-color="#49438D" stop-opacity="0"/>
<stop offset="0.6875" stop-color="#49438D"/>
</linearGradient>
<linearGradient id="paint2_linear" x1="33.2506" y1="40.2266" x2="33.2506" y2="50.3462" gradientUnits="userSpaceOnUse">
<stop offset="0.244792" stop-color="#49438D"/>
<stop offset="0.369792" stop-color="#DFE6FF"/>
<stop offset="0.572917" stop-color="#49438D"/>
</linearGradient>
</defs>
</svg>
